<svg width="26.000000" height="20.000000" viewBox="0 0 26 20" fill="none" xmlns="http://www.w3.org/2000/svg" xmlns:xlink="http://www.w3.org/1999/xlink">
	<desc>
			Created with Pixso.
	</desc>
	<defs>
		<clipPath id="clip2_808">
			<rect id="logos:mastercard" width="26.000000" height="20.000000" fill="white" fill-opacity="0"/>
		</clipPath>
	</defs>
	<rect id="logos:mastercard" width="26.000000" height="20.000000" fill="#FFFFFF" fill-opacity="0"/>
	<g clip-path="url(#clip2_808)">
		<path id="Vector" d="M4.72656 19.9006L4.72656 18.5769C4.72656 18.0696 4.41455 17.7385 3.87939 17.7385C3.61182 17.7385 3.32178 17.8269 3.12109 18.1138C2.96533 17.8708 2.74219 17.7385 2.40771 17.7385C2.18506 17.7385 1.96191 17.8047 1.78369 18.0474L1.78369 17.7827L1.31543 17.7827L1.31543 19.9006L1.78369 19.9006L1.78369 18.7314C1.78369 18.3564 1.98438 18.1799 2.29639 18.1799C2.6084 18.1799 2.76465 18.3784 2.76465 18.7314L2.76465 19.9006L3.23291 19.9006L3.23291 18.7314C3.23291 18.3564 3.45557 18.1799 3.74561 18.1799C4.05762 18.1799 4.21387 18.3784 4.21387 18.7314L4.21387 19.9006L4.72656 19.9006ZM11.6606 17.7827L10.9023 17.7827L10.9023 17.1428L10.4341 17.1428L10.4341 17.7827L10.0107 17.7827L10.0107 18.2019L10.4341 18.2019L10.4341 19.1726C10.4341 19.6582 10.6348 19.9448 11.1699 19.9448C11.3706 19.9448 11.5938 19.8787 11.75 19.7905L11.6157 19.3933C11.4819 19.4814 11.3262 19.5037 11.2148 19.5037C10.9917 19.5037 10.9023 19.3713 10.9023 19.1506L10.9023 18.2019L11.6606 18.2019L11.6606 17.7827ZM15.6289 17.7385C15.3618 17.7385 15.1831 17.8708 15.0718 18.0474L15.0718 17.7827L14.6035 17.7827L14.6035 19.9006L15.0718 19.9006L15.0718 18.7095C15.0718 18.3564 15.2275 18.1577 15.5176 18.1577C15.6069 18.1577 15.7183 18.1799 15.8076 18.2019L15.9414 17.7607C15.8521 17.7385 15.7183 17.7385 15.6289 17.7385L15.6289 17.7385ZM9.63184 17.9592C9.40869 17.8047 9.09668 17.7385 8.76221 17.7385C8.22705 17.7385 7.87061 18.0034 7.87061 18.4226C7.87061 18.7756 8.1377 18.9741 8.60596 19.0403L8.8291 19.0625C9.07422 19.1064 9.20801 19.1726 9.20801 19.283C9.20801 19.4375 9.02979 19.5479 8.71729 19.5479C8.40527 19.5479 8.16016 19.4375 8.00391 19.3271L7.78125 19.6802C8.02637 19.8567 8.36084 19.9448 8.69531 19.9448C9.31934 19.9448 9.67627 19.6582 9.67627 19.261C9.67627 18.8857 9.38623 18.6873 8.94043 18.6211L8.71729 18.5991C8.5166 18.5769 8.36084 18.533 8.36084 18.4006C8.36084 18.2461 8.5166 18.1577 8.76221 18.1577C9.02979 18.1577 9.29736 18.2681 9.43115 18.3342L9.63184 17.9592ZM22.0728 17.7385C21.8052 17.7385 21.6265 17.8708 21.5151 18.0474L21.5151 17.7827L21.0469 17.7827L21.0469 19.9006L21.5151 19.9006L21.5151 18.7095C21.5151 18.3564 21.6714 18.1577 21.9609 18.1577C22.0503 18.1577 22.1616 18.1799 22.251 18.2019L22.3848 17.7607C22.2954 17.7385 22.1616 17.7385 22.0728 17.7385ZM16.0972 18.8418C16.0972 19.4814 16.543 19.9448 17.2344 19.9448C17.5464 19.9448 17.7695 19.8787 17.9922 19.7021L17.7695 19.3271C17.5913 19.4595 17.4126 19.5256 17.2119 19.5256C16.833 19.5256 16.5654 19.261 16.5654 18.8418C16.5654 18.4446 16.833 18.1799 17.2119 18.1577C17.4126 18.1577 17.5913 18.2239 17.7695 18.3564L17.9922 17.9812C17.7695 17.8047 17.5464 17.7385 17.2344 17.7385C16.543 17.7385 16.0972 18.2019 16.0972 18.8418ZM20.4229 18.8418L20.4229 17.7827L19.9546 17.7827L19.9546 18.0474C19.7983 17.8489 19.5757 17.7385 19.2856 17.7385C18.6836 17.7385 18.2153 18.2019 18.2153 18.8418C18.2153 19.4814 18.6836 19.9448 19.2856 19.9448C19.5977 19.9448 19.8208 19.8345 19.9546 19.636L19.9546 19.9006L20.4229 19.9006L20.4229 18.8418ZM18.7061 18.8418C18.7061 18.4666 18.9512 18.1577 19.3525 18.1577C19.7314 18.1577 19.999 18.4446 19.999 18.8418C19.999 19.2168 19.7314 19.5256 19.3525 19.5256C18.9512 19.5034 18.7061 19.2168 18.7061 18.8418ZM13.1099 17.7385C12.4854 17.7385 12.0396 18.1799 12.0396 18.8418C12.0396 19.5037 12.4854 19.9448 13.1318 19.9448C13.4443 19.9448 13.7563 19.8567 14.0015 19.6582L13.7788 19.3271C13.6001 19.4595 13.3774 19.5479 13.1543 19.5479C12.8647 19.5479 12.5747 19.4153 12.5078 19.0403L14.0908 19.0403L14.0908 18.8638C14.1133 18.1799 13.7119 17.7385 13.1099 17.7385ZM13.1099 18.1357C13.3994 18.1357 13.6001 18.3123 13.645 18.6433L12.5303 18.6433C12.5747 18.3564 12.7754 18.1357 13.1099 18.1357ZM24.7256 18.8418L24.7256 16.9443L24.2573 16.9443L24.2573 18.0474C24.1016 17.8489 23.8784 17.7385 23.5884 17.7385C22.9868 17.7385 22.5186 18.2019 22.5186 18.8418C22.5186 19.4814 22.9868 19.9448 23.5884 19.9448C23.9009 19.9448 24.1235 19.8345 24.2573 19.636L24.2573 19.9006L24.7256 19.9006L24.7256 18.8418ZM23.0088 18.8418C23.0088 18.4666 23.2539 18.1577 23.6558 18.1577C24.0347 18.1577 24.3022 18.4446 24.3022 18.8418C24.3022 19.2168 24.0347 19.5256 23.6558 19.5256C23.2539 19.5034 23.0088 19.2168 23.0088 18.8418ZM7.35742 18.8418L7.35742 17.7827L6.88916 17.7827L6.88916 18.0474C6.7334 17.8489 6.51025 17.7385 6.22021 17.7385C5.61865 17.7385 5.15039 18.2019 5.15039 18.8418C5.15039 19.4814 5.61865 19.9448 6.22021 19.9448C6.53271 19.9448 6.75537 19.8345 6.88916 19.636L6.88916 19.9006L7.35742 19.9006L7.35742 18.8418ZM5.61865 18.8418C5.61865 18.4666 5.86377 18.1577 6.26514 18.1577C6.64404 18.1577 6.91162 18.4446 6.91162 18.8418C6.91162 19.2168 6.64404 19.5256 6.26514 19.5256C5.86377 19.5034 5.61865 19.2168 5.61865 18.8418Z" fill="#151618" fill-opacity="1.000000" fill-rule="nonzero"/>
		<path id="Vector" d="M9.47559 1.69873L16.4985 1.69873L16.4985 14.1863L9.47559 14.1863L9.47559 1.69873Z" fill="#FF5F00" fill-opacity="1.000000" fill-rule="nonzero"/>
		<path id="Vector" d="M9.92139 7.94263C9.92139 5.40552 11.1255 3.15503 12.9761 1.69873C11.6162 0.639893 9.89941 0 8.02637 0C3.58936 0 0 3.552 0 7.94263C0 12.333 3.58936 15.8853 8.02637 15.8853C9.89941 15.8853 11.6157 15.2454 12.9761 14.1863C11.1255 12.7522 9.92139 10.4797 9.92139 7.94263Z" fill="#EB001B" fill-opacity="1.000000" fill-rule="nonzero"/>
		<path id="Vector" d="M25.9741 7.94263C25.9741 12.333 22.3843 15.8853 17.9478 15.8853C16.0747 15.8853 14.3579 15.2454 12.998 14.1863C14.8711 12.7302 16.0527 10.4797 16.0527 7.94263C16.0527 5.40552 14.8486 3.15503 12.998 1.69873C14.3579 0.639893 16.0747 0 17.9478 0C22.3843 0 25.9741 3.57422 25.9741 7.94263Z" fill="#F79E1B" fill-opacity="1.000000" fill-rule="nonzero"/>
	</g>
</svg>
