<svg width="10.000000" height="12.000000" viewBox="0 0 10 12" fill="none" xmlns="http://www.w3.org/2000/svg" xmlns:xlink="http://www.w3.org/1999/xlink">
	<desc>
			Created with Pixso.
	</desc>
	<defs>
		<clipPath id="clip2_820">
			<rect id="logos:paypal" width="10.000000" height="12.000000" fill="white" fill-opacity="0"/>
		</clipPath>
	</defs>
	<rect id="logos:paypal" width="10.000000" height="12.000000" fill="#FFFFFF" fill-opacity="0"/>
	<g clip-path="url(#clip2_820)">
		<path id="Vector" d="M8.48291 0.933838C7.93848 0.302734 6.95459 0.0322266 5.6958 0.0322266L2.04248 0.0322266C1.91797 0.0322266 1.79785 0.0773926 1.70312 0.159668C1.6084 0.241943 1.54541 0.355957 1.52588 0.480957L0.00488281 10.2942C-0.0253906 10.4878 0.12207 10.6631 0.314941 10.6631L2.57031 10.6631L3.13672 7.00854L3.11914 7.12305C3.15918 6.86475 3.37646 6.67407 3.63379 6.67407L4.70557 6.67407C6.81055 6.67407 8.45947 5.8042 8.94092 3.28784C8.95508 3.21338 8.96777 3.14087 8.97852 3.07031C9.12158 2.14014 8.97754 1.50708 8.48291 0.933838Z" fill="#27346A" fill-opacity="1.000000" fill-rule="nonzero"/>
		<path id="Vector" d="M3.99951 2.73511C4.06104 2.70532 4.12842 2.68994 4.19678 2.68994L7.06104 2.68994C7.3999 2.68994 7.71631 2.7124 8.00537 2.75977C8.08643 2.77271 8.16699 2.78833 8.24658 2.80664C8.35986 2.83203 8.47217 2.86328 8.58203 2.8999C8.72412 2.94824 8.85645 3.00439 8.97852 3.07031C9.12158 2.13989 8.97754 1.50708 8.48291 0.933838C7.93799 0.302734 6.95459 0.0322266 5.6958 0.0322266L2.04248 0.0322266C1.78516 0.0322266 1.56641 0.222656 1.52588 0.480957L0.00488281 10.2939C-0.0253906 10.4878 0.12207 10.6626 0.314453 10.6626L2.57031 10.6626L3.74512 3.08252C3.75684 3.00806 3.78613 2.9375 3.83008 2.87695C3.87451 2.81641 3.93262 2.76782 3.99951 2.73511Z" fill="#27346A" fill-opacity="1.000000" fill-rule="nonzero"/>
		<path id="Vector" d="M8.94092 3.28784C8.45947 5.80396 6.81104 6.67432 4.70557 6.67432L3.63379 6.67432C3.37646 6.67432 3.15918 6.86475 3.11914 7.12305L2.41455 11.667C2.38818 11.8364 2.51709 11.9897 2.68555 11.9897L4.58643 11.9897C4.69531 11.9897 4.80078 11.9502 4.88379 11.8782C4.96631 11.8062 5.02148 11.7065 5.03809 11.5972L5.05664 11.4985L5.41504 9.18872L5.43799 9.06104C5.45508 8.95142 5.51025 8.85181 5.59277 8.78003C5.67578 8.70801 5.78076 8.66846 5.88965 8.66846L6.17432 8.66846C8.01611 8.66846 9.45801 7.90723 9.87939 5.70605C10.0552 4.78613 9.96436 4.01831 9.49902 3.47876C9.35791 3.31543 9.18262 3.18042 8.97852 3.07031C8.96729 3.14136 8.95557 3.21362 8.94092 3.28784Z" fill="#2790C3" fill-opacity="1.000000" fill-rule="nonzero"/>
		<path id="Vector" d="M8.47461 2.86597C8.39941 2.84351 8.32373 2.82397 8.24756 2.80664C8.16748 2.78882 8.08691 2.77319 8.00635 2.76001C7.7168 2.7124 7.40088 2.68994 7.06104 2.68994L4.19775 2.68994C4.12939 2.6897 4.06152 2.70532 4 2.7356C3.93311 2.76807 3.875 2.81665 3.83057 2.8772C3.78662 2.93774 3.75732 3.0083 3.74609 3.08276L3.13721 7.00854L3.11963 7.12305C3.15967 6.86475 3.37695 6.67432 3.63428 6.67432L4.70605 6.67432C6.81152 6.67432 8.45996 5.80444 8.94141 3.28784C8.95605 3.21362 8.96777 3.14136 8.979 3.07031C8.85693 3.00488 8.7251 2.94824 8.58301 2.90039C8.54688 2.88818 8.51074 2.87671 8.47461 2.86597Z" fill="#1F264F" fill-opacity="1.000000" fill-rule="nonzero"/>
	</g>
</svg>
